PathFileType	4	(X/Y/Z)	/Users/itak/Documents/Research/Walk-IL/dataset/trc/00295_00010.trc
DataRate	CameraRate	NumFrames	NumMarkers	Units	OrigDataRate	OrigDataStartFrame	OrigNumFrames
100.000000	100.000000	4	54	mm	100.000000	495	661
Frame#	Time	RPSI			LPSI			L3			STRN			T10			C7			CLAV			RBAK			LBAK			LSHO			LUPA			LAEL			LAOL			LWTS			LWPS			LFRA			LHPS			RSHO			RUPA			RAEL			RAOL			RWTS			RWPS			RFRA			RIFD			RHTS			RHPS			RBHD			LFHD			RFHD			LBHD			LHIP			RHIP			RASI			LASI			LKNE			LTHI			LANK			LTIP			LTOE			LMT1			LMT5			LHEE			RKNE			RTHI			RANK			RTIP			RTOE			RMT1			RMT5			RHEE			LIFD			LHTS			*53			
		X1	Y1	Z1	X2	Y2	Z2	X3	Y3	Z3	X4	Y4	Z4	X5	Y5	Z5	X6	Y6	Z6	X7	Y7	Z7	X8	Y8	Z8	X9	Y9	Z9	X10	Y10	Z10	X11	Y11	Z11	X12	Y12	Z12	X13	Y13	Z13	X14	Y14	Z14	X15	Y15	Z15	X16	Y16	Z16	X17	Y17	Z17	X18	Y18	Z18	X19	Y19	Z19	X20	Y20	Z20	X21	Y21	Z21	X22	Y22	Z22	X23	Y23	Z23	X24	Y24	Z24	X25	Y25	Z25	X26	Y26	Z26	X27	Y27	Z27	X28	Y28	Z28	X29	Y29	Z29	X30	Y30	Z30	X31	Y31	Z31	X32	Y32	Z32	X33	Y33	Z33	X34	Y34	Z34	X35	Y35	Z35	X36	Y36	Z36	X37	Y37	Z37	X38	Y38	Z38	X39	Y39	Z39	X40	Y40	Z40	X41	Y41	Z41	X42	Y42	Z42	X43	Y43	Z43	X44	Y44	Z44	X45	Y45	Z45	X46	Y46	Z46	X47	Y47	Z47	X48	Y48	Z48	X49	Y49	Z49	X50	Y50	Z50	X51	Y51	Z51	X52	Y52	Z52	X53	Y53	Z53	X54	Y54	Z54	

496	4.95	528.7691040039062	975.9133911132812	177.4693450927734	702.2552490234375	972.5040893554688	190.6366119384766	627.977783203125	1038.141845703125	199.4930572509766	592.48193359375	1221.386474609375	446.9063720703125	634.8370361328125	1154.921875	184.0415802001953	635.4530029296875	1401.198852539062	227.808837890625	602.3357543945312	1321.471313476562	382.6480102539062	578.3568115234375	1259.3564453125	166.4810180664062	741.0169677734375	1368.741088867188	231.7515411376953	773.85107421875	1377.5810546875	329.5332946777344	854.9297485351562	1264.643920898438	315.9205017089844	881.8781127929688	1063.71728515625	329.0750427246094	827.8897705078125	1041.796020507812	264.9604797363281	844.5890502929688	863.9769897460938	446.7917175292969	907.3952026367188	847.1746215820312	416.72216796875	895.8751831054688	966.4412841796875	359.7961730957031	906.292724609375	761.0784301757812	438.9970092773438	469.0110778808594	1374.405029296875	257.4523315429688	408.9480590820312	1318.206665039062	229.8275146484375	388.5958251953125	1063.446044921875	153.8399810791016	481.6752624511719	1055.484985351562	166.5432891845703	388.1459350585938	828.6536254882812	232.1204986572266	346.3717346191406	832.0723266601562	157.2290344238281	367.6006164550781	994.1531372070312	155.8981170654297	394.779541015625	649.5587768554688	221.2431182861328	359.1690979003906	714.0999145507812	237.4095153808594	338.1585083007812	717.89990234375	168.8711395263672	561.1904907226562	1567.6884765625	251.47314453125	606.3267822265625	1579.8759765625	460.0419311523438	520.4786987304688	1572.600952148438	422.8869934082031	696.4616088867188	1568.0888671875	308.5973205566406	795.4810791015625	922.1653442382812	260.7331848144531	421.9089050292969	925.7630004882812	275.4826354980469	492.5528259277344	928.9813232421875	394.0991516113281	744.83251953125	924.8148193359375	397.8561401367188	807.5941772460938	458.9467468261719	265.3416442871094	810.2717895507812	599.8767700195312	278.6411437988281	815.1939086914062	189.6571807861328	-96.30275726318359	821.3320922851562	311.9394836425781	85.45771026611328	726.0674438476562	22.49899864196777	-29.05153465270996	692.660400390625	79.91080474853516	-61.74019622802734	806.79052734375	69.74439239501953	-66.03263092041016	760.554443359375	235.4804229736328	-115.8569869995117	503.2578125	472.8331604003906	426.3225402832031	433.7016906738281	724.546875	371.2689514160156	585.7940673828125	37.21366119384766	417.1440734863281	530.7151489257812	352.5156860351562	457.7467041015625	634.2999267578125	39.96297073364258	614.5602416992188	675.1117553710938	34.1666259765625	557.326416015625	563.3052368164062	32.39641571044922	521.4105834960938	636.7537841796875	29.38004684448242	369.3115234375	851.2211303710938	685.2737426757812	489.6146240234375	866.45947265625	773.44580078125	489.2942810058594	nan	nan	nan	
497	4.96	528.73486328125	977.5111083984375	185.7932586669922	702.2083740234375	973.1043701171875	199.8634033203125	627.4334716796875	1039.5283203125	208.5054779052734	590.4422607421875	1222.843139648438	455.4618835449219	634.3956298828125	1156.480590820312	192.9911956787109	634.75048828125	1402.818237304688	236.67578125	600.6133422851562	1323.005615234375	391.3058776855469	578.06005859375	1260.685913085938	175.022705078125	740.2354125976562	1370.259765625	241.2457580566406	772.4776611328125	1379.197631835938	339.2792358398438	853.6342163085938	1266.202758789062	326.3865356445312	880.2455444335938	1064.819091796875	339.383056640625	826.9818115234375	1043.611572265625	274.2791748046875	841.3859252929688	861.2763671875	451.0051574707031	904.6889038085938	845.5232543945312	421.4220581054688	893.7737426757812	966.5720825195312	368.0432739257812	902.8458862304688	758.4364624023438	440.1223754882812	468.1052551269531	1375.821533203125	265.1764831542969	408.2119445800781	1319.442504882812	237.2871246337891	388.7443542480469	1063.929321289062	162.6650085449219	481.904541015625	1056.542114257812	175.1891784667969	389.5302429199219	831.5462646484375	247.53466796875	347.3143310546875	832.380615234375	172.7124633789062	368.1931762695312	994.4594116210938	166.2623596191406	396.4905090332031	652.244873046875	242.9500885009766	360.8733215332031	717.13720703125	256.955078125	339.5143737792969	718.557861328125	188.3164520263672	560.08154296875	1569.121948242188	259.6824951171875	603.8538208007812	1581.33544921875	468.5325317382812	518.2182006835938	1574.045532226562	430.8085327148438	694.9913330078125	1569.58544921875	317.6955261230469	794.6061401367188	922.6787109375	270.9327087402344	421.36279296875	927.3860473632812	282.9635925292969	490.994873046875	930.3668212890625	402.0363464355469	743.29296875	926.492919921875	407.8912048339844	807.8760375976562	458.6473083496094	287.2615966796875	810.0482788085938	600.0159912109375	296.6487731933594	821.9647827148438	194.8455963134766	-76.48567962646484	824.7605590820312	313.2170104980469	107.0076751708984	726.5867919921875	22.70419502258301	-19.19096374511719	696.606689453125	85.41274261474609	-49.62682723999023	810.2628784179688	73.55721282958984	-51.07701873779297	768.537353515625	242.0028381347656	-96.17314147949219	502.3034362792969	472.7878723144531	429.5600280761719	432.7168884277344	725.1681518554688	377.1884155273438	585.723876953125	37.00815963745117	417.175537109375	529.7189331054688	352.07666015625	459.4298095703125	634.2850952148438	40.0236701965332	614.4107666015625	675.0106811523438	34.38779067993164	557.2174682617188	563.1942749023438	32.23396301269531	521.3292236328125	636.4796142578125	29.34119606018066	369.1378784179688	846.5528564453125	680.8777465820312	486.3032836914062	862.011474609375	768.855224609375	490.0332641601562	nan	nan	nan	
498	4.97	528.9092407226562	979.0509033203125	193.7987823486328	702.3328857421875	973.626220703125	209.020263671875	626.97998046875	1040.792236328125	217.3522186279297	588.5159912109375	1224.104736328125	463.8390808105469	633.96728515625	1157.951171875	201.8319091796875	634.0477905273438	1404.369262695312	245.4466247558594	598.9558715820312	1324.325439453125	399.8248901367188	577.7041625976562	1261.978393554688	183.3638763427734	739.4450073242188	1371.682495117188	250.6054382324219	771.1319580078125	1380.68701171875	348.8881225585938	852.3568725585938	1267.612060546875	336.6846923828125	878.5523681640625	1065.90087890625	349.6820068359375	826.0851440429688	1045.246826171875	283.5057678222656	838.3545532226562	858.6602172851562	455.0412902832031	902.1749877929688	843.9949951171875	425.9949340820312	891.7449951171875	966.6795654296875	376.1826782226562	899.766845703125	756.0859985351562	441.123046875	467.1883850097656	1377.145385742188	272.8684387207031	407.4414367675781	1320.571166992188	244.7373809814453	388.6697387695312	1064.300537109375	171.5244445800781	481.9190368652344	1057.484985351562	183.8560791015625	390.7181396484375	834.5919189453125	263.0384521484375	347.8855590820312	832.91357421875	188.4764251708984	368.5102844238281	994.782470703125	176.7835693359375	397.5628051757812	655.2247314453125	264.5891418457031	362.1694946289062	720.4678344726562	276.6017150878906	340.2654724121094	719.62451171875	208.0146484375	558.970458984375	1570.455444335938	267.84130859375	601.4364624023438	1582.646606445312	476.9512023925781	515.9984130859375	1575.351684570312	438.6830749511719	693.5249633789062	1570.973999023438	326.7001953125	793.8206176757812	923.057373046875	281.1167297363281	420.8735961914062	928.9562377929688	290.0592651367188	489.4340209960938	931.6679077148438	409.6768798828125	741.67822265625	927.9475708007812	417.7855529785156	807.7046508789062	458.5055541992188	309.5149536132812	809.599609375	600.2335205078125	314.9808044433594	828.3311157226562	199.1446075439453	-56.05084228515625	827.8372192382812	314.4400024414062	129.0941925048828	727.4874877929688	23.73851776123047	-6.252182006835938	700.683349609375	90.63787841796875	-35.24865341186523	813.8295288085938	77.23783111572266	-33.84553146362305	776.1521606445312	247.5006866455078	-76.22599792480469	501.316162109375	472.7428588867188	432.5607604980469	431.7976379394531	725.8644409179688	382.8734741210938	585.6771240234375	36.78759384155273	417.2223510742188	528.7319946289062	351.6594543457031	460.9052124023438	634.2205810546875	40.09766006469727	614.2687377929688	674.8688354492188	34.62020874023438	557.1233520507812	563.0703125	32.04556655883789	521.2450561523438	636.1964111328125	29.32399940490723	368.9711303710938	842.4839477539062	676.9129028320312	482.8029479980469	857.8873291015625	764.5296020507812	490.5364990234375	nan	nan	nan	
499	4.98	529.3242797851562	980.5270385742188	201.4896850585938	702.64892578125	974.1068725585938	218.1676635742188	626.6495971679688	1041.939208984375	226.0469207763672	586.6849365234375	1225.213745117188	472.0568237304688	633.5714721679688	1159.3134765625	210.5771026611328	633.3517456054688	1405.826538085938	254.1060028076172	597.3695678710938	1325.453369140625	408.1994934082031	577.3167724609375	1263.22607421875	191.5114288330078	738.6644287109375	1373.004150390625	259.8423156738281	769.819580078125	1382.05615234375	358.3694763183594	851.1070556640625	1268.885498046875	346.8136596679688	876.8016967773438	1066.957641601562	359.8647155761719	825.1351928710938	1046.74169921875	292.6175231933594	835.4859619140625	856.158935546875	458.9118347167969	899.8330688476562	842.6199951171875	430.4537048339844	889.7775268554688	966.7875366210938	384.1689453125	897.0672607421875	754.063232421875	442.0670166015625	466.2692565917969	1378.3779296875	280.5073547363281	406.6526794433594	1321.596313476562	252.1633605957031	388.3878173828125	1064.578125	180.4035949707031	481.7369995117188	1058.331665039062	192.5225219726562	391.6902465820312	837.8016967773438	278.5721130371094	348.0934143066406	833.6962890625	204.4611968994141	368.5634460449219	995.1419677734375	187.4399108886719	398.0920104980469	658.4847412109375	286.0964965820312	363.0670776367188	724.0927734375	296.2648010253906	340.4501342773438	721.1190185546875	227.8679809570312	557.859130859375	1571.692016601562	275.9461669921875	599.06396484375	1583.801879882812	485.3027648925781	513.814453125	1576.503540039062	446.5118408203125	692.0601196289062	1572.264282226562	335.6224670410156	793.1410522460938	923.3629150390625	291.3685607910156	420.4348449707031	930.4650268554688	296.7455444335938	487.8208618164062	932.9055786132812	417.0043640136719	739.9248657226562	929.2255249023438	427.5868835449219	807.0610961914062	458.5769348144531	331.9888000488281	808.9100341796875	600.5753784179688	333.5560913085938	834.2665405273438	202.5425415039062	-35.05930709838867	830.5193481445312	315.6265563964844	151.6287384033203	728.9114379882812	25.58229827880859	9.961065292358398	704.848876953125	95.33245086669922	-18.62637519836426	817.5205078125	80.63799285888672	-14.32267761230469	783.3280029296875	251.9009399414062	-56.09161376953125	500.3295288085938	472.7044677734375	435.3763732910156	430.9290466308594	726.6229858398438	388.3350524902344	585.6693115234375	36.55996322631836	417.282958984375	527.8117065429688	351.2938537597656	462.3163452148438	634.1188354492188	40.16665267944336	614.1412963867188	674.69482421875	34.84652709960938	557.0504150390625	562.9427490234375	31.84363555908203	521.1664428710938	635.9424438476562	29.32054328918457	368.827392578125	839.0276489257812	673.40625	479.2307739257812	854.11328125	760.5195922851562	490.8801879882812	nan	nan	nan	
